<?xml version="1.0" encoding="UTF-8" standalone="no"?>
<!-- Generator: Gravit.io --><svg xmlns="http://www.w3.org/2000/svg" xmlns:xlink="http://www.w3.org/1999/xlink"
  style="isolation:isolate" viewBox="0 0 64.048 63.063" width="64.048pt" height="63.063pt">
  <defs>
    <clipPath id="_clipPath_w3CrNds1zsZQ4wNR20X7lCQX9P6NtmwM">
      <rect width="64.048" height="63.063" />
    </clipPath>
  </defs>
  <g clip-path="url(#_clipPath_w3CrNds1zsZQ4wNR20X7lCQX9P6NtmwM)">
    <g>
      <g>
        <linearGradient id="_lgradient_0" x1="-0.4444720867969023" y1="-0.23837021064553318" x2="1.0000000000000002"
          y2="0.49999999999999944" gradientTransform="matrix(62.936,0,0,19.736,0.541,0.094)"
          gradientUnits="userSpaceOnUse">
          <stop offset="0%" stop-opacity="1" style="stop-color:rgb(236,52,58)" />
          <stop offset="67.4586799279447%" stop-opacity="1" style="stop-color:rgb(236,52,58)" />
          <stop offset="86.19505634711658%" stop-opacity="1" style="stop-color:rgb(169,54,86)" />
          <stop offset="100%" stop-opacity="1" style="stop-color:rgb(57,57,131)" />
        </linearGradient>
        <path
          d=" M 63.351 15.018 C 63.175 15.866 62.814 16.662 62.291 17.367 C 61.784 18.019 61.144 18.554 60.401 18.939 C 59.687 19.298 58.926 19.549 58.126 19.672 C 57.339 19.802 56.541 19.852 55.746 19.822 C 54.921 19.791 54.099 19.706 53.285 19.569 L 31.578 18.056 C 31.578 18.056 31.578 18.056 31.578 18.056 L 7.386 16.375 C 5.503 16.227 3.748 15.388 2.51 14.044 C 1.168 12.591 0.469 10.723 0.547 8.819 C 0.563 8.286 0.628 7.754 0.751 7.237 C 0.999 6.124 1.447 5.064 2.071 4.096 C 2.65 3.212 3.404 2.441 4.284 1.807 C 5.984 0.623 8.069 0.024 10.191 0.1 C 10.7 0.115 11.201 0.164 11.7 0.252 L 12.214 0.34 C 20.147 1.694 28.073 3.048 36.006 4.402 L 59.084 8.35 C 59.091 8.35 59.105 8.351 59.119 8.351 C 59.69 8.468 60.229 8.684 60.715 8.992 C 61.237 9.314 61.699 9.708 62.087 10.166 C 63.024 11.24 63.515 12.595 63.475 13.974 C 63.464 14.328 63.425 14.673 63.351 15.018 Z "
          fill="url(#_lgradient_0)" />
        <linearGradient id="_lgradient_1" x1="1.104463951633205" y1="0.5928642784049494" x2="-0.3325142771597933"
          y2="0.08435222888029814" gradientTransform="matrix(35.95,0,0,62.342,0,0)" gradientUnits="userSpaceOnUse">
          <stop offset="0%" stop-opacity="1" style="stop-color:rgb(236,52,58)" />
          <stop offset="35.43632075471708%" stop-opacity="1" style="stop-color:rgb(236,52,58)" />
          <stop offset="100%" stop-opacity="1" style="stop-color:rgb(57,57,131)" />
        </linearGradient>
        <path
          d=" M 17.925 5.27 C 18.813 7.602 19.694 9.934 20.575 12.273 L 25.638 25.719 L 30.937 39.848 C 32.069 42.856 33.186 45.864 34.297 48.879 C 34.771 50.148 35.174 51.437 35.507 52.745 C 35.653 53.303 35.764 53.867 35.84 54.444 C 35.916 54.967 35.957 55.489 35.949 56.017 C 35.947 56.613 35.867 57.209 35.702 57.782 C 35.545 58.356 35.289 58.9 34.942 59.388 C 34.595 59.884 34.164 60.323 33.671 60.685 C 33.157 61.068 32.593 61.388 32.003 61.639 C 30.986 62.096 29.873 62.339 28.75 62.342 C 27.317 62.305 25.933 61.81 24.831 60.915 C 24.295 60.481 23.808 59.98 23.4 59.425 C 22.978 58.856 22.614 58.246 22.32 57.604 L 11.476 34.615 L 4.445 19.738 L 0.672 11.758 C 0.208 10.776 -0.022 9.703 0.002 8.627 C 0.041 7.043 0.546 5.508 1.45 4.192 C 2.469 2.734 3.886 1.57 5.543 0.835 C 6.816 0.265 8.205 -0.021 9.611 0.001 C 11.411 0.03 13.162 0.545 14.679 1.488 C 15.407 1.938 16.062 2.49 16.617 3.13 C 17.179 3.763 17.62 4.483 17.925 5.27 Z "
          fill="url(#_lgradient_1)" />
        <linearGradient id="_lgradient_2" x1="1.022646165472006" y1="0.09549371884344329" x2="-0.007899103329391144"
          y2="0.8403935717142941" gradientTransform="matrix(42.497,0,0,54.889,21.551,8.174)"
          gradientUnits="userSpaceOnUse">
          <stop offset="0%" stop-opacity="1" style="stop-color:rgb(236,52,58)" />
          <stop offset="60.413084735877%" stop-opacity="1" style="stop-color:rgb(236,52,58)" />
          <stop offset="100%" stop-opacity="1" style="stop-color:rgb(57,57,131)" />
        </linearGradient>
        <path
          d=" M 62.317 10.141 C 62.863 10.692 63.296 11.342 63.596 12.06 C 63.902 12.818 64.055 13.629 64.048 14.44 C 64.04 15.339 63.88 16.23 63.573 17.075 C 63.219 18.047 62.745 18.972 62.165 19.83 L 35.084 60.21 C 35.078 60.21 35.078 60.217 35.071 60.217 C 34.437 61.142 33.57 61.886 32.557 62.361 C 31.57 62.83 30.49 63.071 29.403 63.063 C 28.43 63.063 27.464 62.874 26.571 62.492 C 25.631 62.095 24.799 61.478 24.132 60.693 C 23.34 59.734 22.707 58.647 22.268 57.474 C 21.796 56.233 21.556 54.912 21.551 53.578 C 21.551 52.478 21.725 51.385 22.079 50.346 C 22.46 49.213 23.04 48.154 23.781 47.216 L 28.337 41.453 L 41.478 24.826 L 47.589 17.065 C 48.883 15.43 50.164 13.788 51.444 12.146 C 51.931 11.503 52.478 10.906 53.065 10.35 C 53.559 9.888 54.099 9.473 54.679 9.124 C 55.653 8.521 56.766 8.2 57.899 8.174 C 58.806 8.181 59.699 8.397 60.505 8.813 C 61.171 9.155 61.784 9.605 62.317 10.141 Z "
          fill="url(#_lgradient_2)" />
      </g>
    </g>
  </g>
</svg>
